<svg id="图层_1" data-name="图层 1" xmlns="http://www.w3.org/2000/svg" viewBox="0 0 1577 400"><defs><style>.cls-1{fill:#fff;}.cls-2{fill:none;stroke:#000;stroke-miterlimit:10;stroke-width:11px;}</style></defs><polygon points="62.41 337.59 5.41 200 62.41 62.41 200 5.41 337.6 62.41 394.59 200 337.6 337.6 200 394.59 62.41 337.59"/><path d="M359,301.82l133.77,55.41L548.18,491,492.77,624.77,359,680.18,225.23,624.77,169.82,491l55.41-133.77L359,301.82M359,291,217.58,349.58,159,491l58.58,141.42L359,691l141.42-58.58L559,491,500.42,349.58,359,291Z" transform="translate(-159 -291)"/><circle class="cls-1" cx="200" cy="199" r="178.5"/><path d="M359,315A175,175,0,1,1,184,490,175,175,0,0,1,359,315m0-7a181.49,181.49,0,1,0,70.84,14.31A180.69,180.69,0,0,0,359,308Z" transform="translate(-159 -291)"/><path d="M241.5,424.82c-4.65,4.35-19.2,15.75-21.6,15.75-.3,0-.6-.15-.6-.45a3.56,3.56,0,0,1,1.2-1.95c15.9-15.9,28.65-38.1,35.25-59.85l-9.6.15c-5.4.15-16.8.75-19.8,1.2a13.66,13.66,0,0,1-2.25-5.85c2.25.3,11,.75,17,.9V364.07a124.28,124.28,0,0,0-1.35-17.4c1.8,0,23.4.15,23.4,4.65,0,1.35-2,3-5.25,3.6-.45,3.45-.45,14.85-.45,19.5,2.7-3.3,5.55-6.3,6.3-6.3,1.05,0,13.95,7.5,13.95,12.3,0,1.95-2.4,3-5.7,3.3a153.08,153.08,0,0,1-14.1,22.95v1.65c8.4,1.95,20.4,5.85,20.4,15.9a8.69,8.69,0,0,1-8.25,9c-2.7,0-4.95-1.65-5.85-4.8-1.5-5.25-1.2-11.55-6.3-17.1v36.6c0,4.2.15,14.84.3,20.54,0,1.35.15,9.3.15,10.8,0,5.55-11.25,5.55-11.7,5.55-4.35,0-6.15-1.65-6.15-4.35v-.6c.3-2.85,1.05-21.75,1.05-31.34Zm113.69,16.5c0,5.55-10.8,5.55-11.4,5.55-4.5,0-6.29-1.65-6.29-4.05v-.3c.15-1.95.15-5.1.15-7.65h-12.6l.15,7.35c0,6.45,0,18.14.15,26.39,0,1.35.3,8.7.3,10.35,0,4.35-7.95,5.55-12.15,5.55-4.35,0-6-1.35-6-3.9v-.9c.45-2.7,1.05-27.59,1.05-37.49v-7.35H296.7c0,3.15.3,6.45.3,8.25v.15c0,3.6-6.9,5.1-11.25,5.1-3.75,0-6-1.2-6-4.05v-.45c.6-9.9.9-26.85.9-31.8,0,0,.15-25.35.15-26.4-.15-5.55-.6-16.35-1.35-21.9,5.7,1.65,14.25,5.7,18.6,8.1h10.5v-4.35a160.65,160.65,0,0,0-1.35-21.3,116.13,116.13,0,0,1,19.95,2.25c2.55.6,3.6,1.8,3.6,3,0,1.5-1.95,3.15-5.4,3.6-.15,1.8-.3,8.25-.3,16.8h11.24c2.4-2.85,6.75-7.5,7.65-7.5,2.25,0,15.3,7.8,15.3,12,0,1.5-1.2,2.85-4.8,3.75-.15,2.4-.3,6.6-.3,11.1,0,9,.3,19.2.3,19.2,0,14.25.75,30.15.75,30.75Zm-46.64-65.7h-12v24.75h12Zm0,28.65h-12l.15,10.65V431h11.85Zm29.39-28.65H325.05v24.75h12.89ZM337.65,431c0-4.35.29-12,.29-17.4v-9.3H325.05V431Z" transform="translate(-159 -291)"/><path d="M480.54,476.86c0,3.15-3.29,4.8-9.89,5.25H469.3c-3.9,0-6.15-1.2-6.15-3.75v-.15c0-1.2.3-3.9.3-5.7h-22.8c0,1.5.15,5.1.15,5.7,0,4.5-7.95,5.1-10.65,5.1-3.6,0-6.3-1.05-6.3-3.6v-.6s.9-10.5.9-24.9l.15-16.8c0-2.25,0-5.1-.15-8C414.1,440.11,402.1,447,400.45,447c-.3,0-.45-.15-.45-.3,0-.45.3-.9,1.05-1.65,10.8-9.75,19.5-22.05,26.1-37.05-4,0-9.3.15-13.5.3,1.5,2.55,2.25,4.5,2.25,6.9,0,6-4.65,9-7.8,9s-5-2.85-5.25-6.45c-.3-4.5-.45-11.55-5.1-17.85,0,21.3.15,42.15.15,42.15,0,5.55.15,19.8.3,27.9,0,2.1,0,5.85.15,8.4v.15c0,1.65-1.8,5.25-11.4,5.25-4.5,0-6.3-1.65-6.3-4.5v-.6c.15-1.35.15-3.45,1.05-34.65l.9-25.5c-6.3,16.8-20.7,29.25-22.35,29.25a.32.32,0,0,1-.3-.3,3.54,3.54,0,0,1,.75-1.95c9.6-15.9,15.75-40.35,19.2-62.54a113.57,113.57,0,0,0-15,.9,11.38,11.38,0,0,1-2.4-5.7c4.05.45,12.75,1.05,19.5,1.2v-10.2a167.28,167.28,0,0,0-1.35-23.25H382a111.44,111.44,0,0,1,17.7,1.5c2.55.45,3.9,1.8,3.9,3.15,0,1.5-1.8,3.15-5.55,3.75-.15,2.1-.3,12.3-.3,25.05h1.05c4.5-11.7,5.4-11.85,6.15-11.85s9.6,9.15,9.6,13.05a2.44,2.44,0,0,1-2.7,2.4h-14.1v14.09a38.7,38.7,0,0,1,11.4,6.3c5.1.45,13.05.75,19.5.9a131.09,131.09,0,0,0,5.55-16.34,167.89,167.89,0,0,0-17.25.75,17.52,17.52,0,0,1-2.25-5.7c3.3.45,12.75.9,20.55,1.2,1.2-4.8,2.1-9.9,3-15.15-5.7,0-20.7,0-25.2.75a17.43,17.43,0,0,1-2.25-5.7c4.35.6,19.5,1.2,28.05,1.35a98.14,98.14,0,0,0,1.35-15.9,36.59,36.59,0,0,0-.15-4.2,165.66,165.66,0,0,1,21.9,3.75c1.5.45,2.7,1.65,2.7,2.85,0,1.5-1.5,2.85-5.85,3.45-.6,3.45-1.05,6.75-1.8,10.05h15.15c1.8-2.25,6.3-9.15,9.45-12a.77.77,0,0,1,.59-.3,2.44,2.44,0,0,1,.75.3c4.5,2.25,14.85,10.05,14.85,13.35a2.3,2.3,0,0,1-2.55,2.25H456.1a150.84,150.84,0,0,1-4.35,15.29H468.4c2.85-4.34,8.1-11.54,9.45-11.54,1.19,0,14.69,9.15,14.69,12.9a2.38,2.38,0,0,1-2.55,2.25H460.9a74.66,74.66,0,0,0,10.8,16.49h6c1.49-2.7,8.24-12.45,9.74-12.45.6,0,15.15,9.75,15.15,13.8a2.25,2.25,0,0,1-2.4,2.25H474.85a87,87,0,0,0,30.29,20.1c.75.3,1.2.6,1.2,1.05s-.6.75-1.35,1c-5.7,2.1-14.25,5.85-16.95,9.3a2.77,2.77,0,0,1-1.8.75c-1.34,0-4.2-2.4-6.59-5.1v19.2c0,3.75.45,13.65.45,15.15,0,1.65.44,6.45.44,7.2ZM441.1,408a109.09,109.09,0,0,1-8.55,12.6c3.15,1.35,6.45,3,9.15,4.5h20.7a63.29,63.29,0,0,1,6-6.45A99,99,0,0,1,463.75,408Zm22.5,20.85h-23c-.15,3-.15,10.5-.15,16.95h23.1Zm0,20.85H440.5v6.75c0,2.4.15,8.4.15,12.3h22.8c0-3.75.15-10.2.15-12.45Zm-1.2-45.3a155.41,155.41,0,0,1-4.35-16.49h-7.5a128,128,0,0,1-7.35,16.49Z" transform="translate(-159 -291)"/><path d="M302.4,614.26c0,2.55.3,6.75.3,8.85,0,1.95-1.5,5.1-11.55,5.1-4.35,0-6.15-1.35-6.15-4.05v-.75c.9-12.45,1.2-23.4,1.2-32.55,0,0,.15-32,.15-53a147.46,147.46,0,0,1-11,12c1.05,1.34,4.05,5.24,4.05,9.44,0,6-4.05,9-7.65,9-3.75,0-5.25-3.3-5.55-7.2-.15-1.65-.3-3.75-.6-6.15l-5.85,2.25v33.9c0,8.25.75,30.75.75,31.2v.15c0,3.15-5.4,5.1-10.35,5.1-4.35,0-6-1.5-6-4.05v-.3c.15-2.1.45-7.65.45-11.25s.15-13.35.15-20V581a11.9,11.9,0,0,1-2.55.3c-5.85,23.1-20.85,38.85-21.9,38.85-.15,0-.3-.15-.3-.45a4.55,4.55,0,0,1,.45-1.65c6-15.6,7.8-36.75,7.8-41.7a35.28,35.28,0,0,0-.15-4.2,69.88,69.88,0,0,1,16.35,4.2l.3.15v-14.1c-4.65,1.5-9,2.7-12.75,3.75,0,3.15-1.2,4.8-2.55,4.8-3.15,0-6.6-10.8-8.1-18.45,2.4.15,5.7.6,7.95.6,2.85,0,5.85-.15,9-.15,10.35-14.1,21-36.14,21.45-43.79,6.75,1.8,19.5,7.5,19.5,10.8,0,1.2-1.2,2-3.3,2a15,15,0,0,1-2.4-.3A241.44,241.44,0,0,1,243,552.76c7.2-.15,15-.6,22.05-1.2a30,30,0,0,0-4.05-10.5,2.44,2.44,0,0,1-.6-1.35c0-.3.15-.3.45-.3,1.8,0,9,5,12.75,8.7,13.2-22.64,18.9-48.74,18.9-57.14v-.75c4.2.6,22.95,4.5,22.95,9,0,1.5-1.65,2.55-4.65,2.55h-1.35a150.41,150.41,0,0,1-12.75,22.35h18c1.95-6.45,4.95-19.2,4.95-29.25,0-.75-.15-1.5-.15-2.1.9.15,23.24,4.2,23.24,9,0,1.35-1.49,2.4-4.34,2.4h-1.21a113.72,113.72,0,0,1-18.29,19.95h15.45c.75-1,5.09-8.85,9-12.3a2.18,2.18,0,0,1,.9-.3c3.45,0,15,12.15,15,14.4,0,1.35-1.05,2.1-2.55,2.1H329.85v23.54H333c.75-1,4.65-8.25,8.4-11.85a1.07,1.07,0,0,1,.89-.3,1.09,1.09,0,0,1,.9.3c5.85,3.46,13.35,11.4,13.35,13.95,0,1.2-1.05,1.8-2.4,1.8H329.85v23.85H333c6.75-11.4,8.69-12.15,9.29-12.15,2.7,0,14.25,11.1,14.25,14.1,0,1.2-1.05,1.8-2.4,1.8H329.85v27.3h6.75c.75-1.05,5.55-9.3,9.44-12.75a1.15,1.15,0,0,1,.75-.3c2.55,0,15.15,11.85,15.15,15.15,0,1.2-1.05,1.8-2.55,1.8ZM240,521.72c5.55,3.3,6.9,6.9,6.9,10,0,3.9-3,9.14-7.65,9.14-2.7,0-4.95-2.4-5.85-5.39-1.8-5.55-4.5-12.9-11.1-18-.75-.6-1.05-.9-1.05-1.2s.3-.3.9-.3a47,47,0,0,1,14.25,3.9c4.95-12.15,7.65-21.45,7.65-29.1v-1.35c6.3,1,21.75,4.95,21.75,9,0,1.2-1.2,2.1-3.9,2.1-.45,0-1-.15-1.65-.15A130.76,130.76,0,0,1,240,521.72ZM281,595.81c0,5-2.55,10.65-8.4,10.65-3.3,0-5.55-3.15-5.55-7.5v-4.8c0-6-.45-13.8-3.9-21a4.89,4.89,0,0,1-.45-1.5c0-.3.15-.45.3-.45C265.05,571.21,281,583.36,281,595.81ZM314.1,528h-12v23.54h12Zm0,27.44h-12v23.85h12Zm0,27.6h-12v6.45c0,5.7,0,14.85.15,20.85H314.1Z" transform="translate(-159 -291)"/><path d="M454.75,567.31c12.6,10.5,30.44,16.65,49.94,18.45.75,0,1.05.3,1.05.6s-.45.75-.9,1c-6.9,3.15-15.45,8.4-18.3,12.6a2.52,2.52,0,0,1-2.25,1c-.29,0-20.84-5.1-32.84-33.75H423.1c-22.2,32.85-61.5,40.35-61.8,40.35q-.9,0-.9-.45c0-.3.6-.9,1.65-1.35a96.64,96.64,0,0,0,39.75-38.55c-9,0-30.45.45-34.95.9-1.5-1.5-2.4-4.5-2.55-6.6,5.7.9,24.75,1.2,36.6,1.35V512.72c-9.15.15-24.45.45-28.5.9-1.5-1.5-2.4-4.65-2.55-6.75,5.55.9,20.4,1.35,31,1.5v-2.55a97.54,97.54,0,0,0-1.35-15.9c8.7.15,24.6,1.35,24.6,5.1,0,1.35-1.8,2.85-5.4,3.6-.15,1.5-.15,5.1-.15,9.75h28v-2.55a118.33,118.33,0,0,0-1.5-16.05,146.19,146.19,0,0,1,21.45,2.4c2.25.45,3.45,1.65,3.45,2.85,0,1.35-1.65,2.85-5.55,3.45-.15,1.5-.3,5.1-.3,9.9h5.4c1.65-2.4,6.75-9.45,10.5-13.05.3-.15.44-.3.75-.3,1.94,0,16.34,11.55,16.34,15.3a2.59,2.59,0,0,1-2.85,2.4H464.2v50.39h8.55c2.1-3.15,7.79-11.25,11.54-14.55a2.33,2.33,0,0,1,.9-.3c2.25,0,17.55,13.5,17.55,16.65a2.45,2.45,0,0,1-2.7,2.4ZM412.6,621.76c-6,0-30.15.15-35.1.75-1.5-1.2-2.25-4.5-2.4-6.45,5.4.9,31.35,1.5,39.75,1.5h8.25v-16.2H420c-6,0-17.55.3-22.5.9-1.5-1.2-2.4-4.2-2.55-6.15,5,.75,19.65,1.2,28.2,1.2v-4.65c0-5.4-.15-13.35-1.2-18a138.36,138.36,0,0,1,21.75,2.55c2.25.6,3.6,1.8,3.6,3.15s-1.8,3-5.7,3.6c-.15,2.55-.3,7.65-.3,13.35h4.65c1.05-1.5,8.1-11.55,9.9-11.55a1.1,1.1,0,0,1,.9.3c4.5,2.7,13.95,10.8,13.95,13.2,0,1.2-1.2,2.1-2.7,2.1h-26.7v16.2H463.6c1.35-1.8,7.5-9.75,11.55-13.5a2.13,2.13,0,0,1,.9-.3c1.35,0,16.79,12,16.79,15.75a2.3,2.3,0,0,1-2.55,2.25Zm34-109h-28.2v13.35h28.2Zm0,17.7h-28.2v13.64h28.2Zm0,18h-28.2c0,6.74.15,12.29.15,14.69h28Z" transform="translate(-159 -291)"/><path d="M606.05,521.44v-5.55q0-11,6.08-17.32t17-6.37q10.89,0,16.93,6.37t6,17.32v5.55q0,10.81-6,17.1t-17,6.3q-11,0-17-6.3T606.05,521.44Zm13.59-5.77v5.84a22.25,22.25,0,0,0,.42,4.51,12.83,12.83,0,0,0,1.25,3.53,9.25,9.25,0,0,0,2,2.52,7.66,7.66,0,0,0,2.63,1.53,9.84,9.84,0,0,0,3.17.5,8.33,8.33,0,0,0,6.94-3.24c1.68-2.16,2.52-5.27,2.52-9.35v-5.84q0-6.1-2.56-9.39a8.91,8.91,0,0,0-13.8,0Q619.64,509.57,619.64,515.67Z" transform="translate(-159 -291)"/><path d="M673.09,543.92v-50.8h23.12a21.89,21.89,0,0,1,8.32,1.46,12.24,12.24,0,0,1,5.55,4.31,11.31,11.31,0,0,1,2,6.68,10.66,10.66,0,0,1-2.63,7.58,11.61,11.61,0,0,1-6.62,3.52v.57a12.87,12.87,0,0,1,8.15,3.45q3.45,3.16,3.45,8.79a12.56,12.56,0,0,1-5,10.59,20.16,20.16,0,0,1-12.59,3.85Zm13.16-41.55v11.17h5.62a10.55,10.55,0,0,0,4.09-.71,5,5,0,0,0,2.42-2,6.13,6.13,0,0,0,0-5.91,4.91,4.91,0,0,0-2.2-1.92,8.25,8.25,0,0,0-3.42-.64Zm0,19.49v12.81h6.26a10.17,10.17,0,0,0,6.22-1.64,5.59,5.59,0,0,0,2.17-4.76,5.92,5.92,0,0,0-1.95-4.7,8.36,8.36,0,0,0-5.66-1.71Z" transform="translate(-159 -291)"/><path d="M731.94,528.83h12.67a5.57,5.57,0,0,0,2.45,4.24,10.24,10.24,0,0,0,6.3,1.74,9.48,9.48,0,0,0,5.72-1.46,4.52,4.52,0,0,0,2-3.8,3.72,3.72,0,0,0-1.92-3.38,10.41,10.41,0,0,0-2.28-1,32.53,32.53,0,0,0-3.2-.86l-6.83-1.35q-13.8-2.7-13.8-14.65a14,14,0,0,1,5.59-11.81q5.58-4.28,14.61-4.27,9.33,0,14.62,4.52a14.34,14.34,0,0,1,5.38,11.2H761a5.75,5.75,0,0,0-2.17-4.09,10.06,10.06,0,0,0-10.74-.36,4.47,4.47,0,0,0-1.82,3.74c0,2.37,2.26,4,6.76,4.84l7,1.35q14.09,2.49,14.09,14.79a14.82,14.82,0,0,1-5.55,12.13q-5.55,4.53-15.72,4.52a30.86,30.86,0,0,1-9.85-1.42,15.69,15.69,0,0,1-6.51-3.81,16.16,16.16,0,0,1-3.38-5.08A16,16,0,0,1,731.94,528.83Z" transform="translate(-159 -291)"/><path d="M829.43,533.46v10.46H794.64v-50.8h34.79v10.46H807.8v10H828v9.6H807.8v10.25Z" transform="translate(-159 -291)"/><path d="M873.06,493.12q9.33,0,14.27,4.63T892.27,510a16.68,16.68,0,0,1-.92,5.59,13.35,13.35,0,0,1-2.42,4.3,21,21,0,0,1-2.92,2.81,11.89,11.89,0,0,1-2.84,1.67l10.1,19.57H878.54l-8.46-17.79h-6v17.79H851v-50.8Zm-9,23.83H871a9.43,9.43,0,0,0,3.88-.74,5.84,5.84,0,0,0,2.63-2.31,8.06,8.06,0,0,0-.07-7.76,6.46,6.46,0,0,0-2.67-2.42,8.48,8.48,0,0,0-3.7-.78h-7Z" transform="translate(-159 -291)"/><path d="M940.88,543.92h-17l-15.72-50.8h15.51L932.49,530h.64l8.68-36.85h14.65Z" transform="translate(-159 -291)"/><path d="M976.26,543.92H963l16.08-50.8h16.5l15.94,50.8H997.32l-2.92-11H979.25Zm11-39.2h-.64l-5,18.64h10.53Z" transform="translate(-159 -291)"/><path d="M1049.21,543.92H1035.9v-40h-13.51V493.12h40.4v10.82h-13.58Z" transform="translate(-159 -291)"/><path d="M1094.69,543.92h-13.31v-50.8h13.31Z" transform="translate(-159 -291)"/><path d="M1115.48,521.44v-5.55q0-11,6.09-17.32t17-6.37q10.89,0,16.94,6.37t6,17.32v5.55q0,10.81-6,17.1t-17,6.3q-11,0-17-6.3T1115.48,521.44Zm13.59-5.77v5.84a21.52,21.52,0,0,0,.43,4.51,12.83,12.83,0,0,0,1.24,3.53,9.28,9.28,0,0,0,2,2.52,7.66,7.66,0,0,0,2.63,1.53,9.78,9.78,0,0,0,3.16.5,8.32,8.32,0,0,0,6.94-3.24c1.68-2.16,2.53-5.27,2.53-9.35v-5.84q0-6.1-2.57-9.39a8.91,8.91,0,0,0-13.8,0C1129.93,508.47,1129.07,511.6,1129.07,515.67Z" transform="translate(-159 -291)"/><path d="M1194.83,543.92h-12.31v-50.8h10.32l19.35,28.39h.57V493.12h12.3v50.8h-10.24l-19.49-28.67h-.5Z" transform="translate(-159 -291)"/><path d="M1276.05,493.12h20.63q11.88,0,17.46,6.65t5.59,18.54a37.77,37.77,0,0,1-1.32,10.38,23,23,0,0,1-4.05,8.08,17.7,17.7,0,0,1-7.22,5.3,27.37,27.37,0,0,1-10.46,1.85h-20.63Zm13.3,10.46v29.88h5.05a15.63,15.63,0,0,0,4.66-.61,9.14,9.14,0,0,0,3.63-2.17,9.71,9.71,0,0,0,2.52-4.58,28.05,28.05,0,0,0,.86-7.51,32.94,32.94,0,0,0-.21-3.84,27.89,27.89,0,0,0-.68-3.56,10.12,10.12,0,0,0-1.35-3.09,12.39,12.39,0,0,0-2.14-2.39,8.24,8.24,0,0,0-3.09-1.6,15.36,15.36,0,0,0-4.2-.53Z" transform="translate(-159 -291)"/><path d="M1347.43,543.92h-13.24l16.08-50.8h16.51l15.93,50.8h-14.23l-2.91-11h-15.16Zm11-39.2h-.64l-5,18.64h10.53Z" transform="translate(-159 -291)"/><path d="M1420.37,543.92h-13.31v-40h-13.51V493.12H1434v10.82h-13.58Z" transform="translate(-159 -291)"/><path d="M1456.46,543.92h-13.23l16.07-50.8h16.51l15.93,50.8h-14.22l-2.92-11h-15.15Zm11-39.2h-.64l-5,18.64h10.53Z" transform="translate(-159 -291)"/><path d="M1510.12,543.92v-50.8h23.12a21.85,21.85,0,0,1,8.32,1.46,12.14,12.14,0,0,1,5.55,4.31,11.32,11.32,0,0,1,2,6.68,10.62,10.62,0,0,1-2.64,7.58,11.58,11.58,0,0,1-6.61,3.52v.57a12.85,12.85,0,0,1,8.14,3.45q3.45,3.16,3.45,8.79a12.56,12.56,0,0,1-5,10.59,20.14,20.14,0,0,1-12.59,3.85Zm13.16-41.55v11.17h5.62a10.52,10.52,0,0,0,4.09-.71,4.93,4.93,0,0,0,2.42-2,6.09,6.09,0,0,0,0-5.91,4.93,4.93,0,0,0-2.21-1.92,8.24,8.24,0,0,0-3.41-.64Zm0,19.49v12.81h6.26a10.21,10.21,0,0,0,6.23-1.64,5.61,5.61,0,0,0,2.17-4.76,5.92,5.92,0,0,0-2-4.7,8.33,8.33,0,0,0-5.65-1.71Z" transform="translate(-159 -291)"/><path d="M1580.29,543.92h-13.23l16.07-50.8h16.51l15.93,50.8h-14.22l-2.92-11h-15.15Zm11-39.2h-.64l-5,18.64h10.53Z" transform="translate(-159 -291)"/><path d="M1631.32,528.83H1644a5.61,5.61,0,0,0,2.46,4.24,10.23,10.23,0,0,0,6.29,1.74,9.5,9.5,0,0,0,5.73-1.46,4.54,4.54,0,0,0,2-3.8,3.77,3.77,0,0,0-1.92-3.38,10.86,10.86,0,0,0-2.28-1,32.53,32.53,0,0,0-3.2-.86l-6.83-1.35q-13.8-2.7-13.8-14.65a14,14,0,0,1,5.58-11.81q5.58-4.28,14.62-4.27,9.32,0,14.62,4.52a14.36,14.36,0,0,1,5.37,11.2h-12.24a5.7,5.7,0,0,0-2.16-4.09,10.07,10.07,0,0,0-10.75-.36,4.46,4.46,0,0,0-1.81,3.74q0,3.56,6.76,4.84l7,1.35q14.08,2.49,14.09,14.79a14.82,14.82,0,0,1-5.55,12.13q-5.55,4.53-15.72,4.52a30.93,30.93,0,0,1-9.86-1.42,15.82,15.82,0,0,1-6.51-3.81,16.51,16.51,0,0,1-3.38-5.08A16.16,16.16,0,0,1,1631.32,528.83Z" transform="translate(-159 -291)"/><path d="M1728.8,533.46v10.46H1694v-50.8h34.78v10.46h-21.62v10h20.2v9.6h-20.2v10.25Z" transform="translate(-159 -291)"/><path d="M612.61,577v23.68q0,5.24,2.82,8.26t8,3q5.13,0,7.92-3t2.8-8.26V577h2.24v23.68q0,6.1-3.46,9.71t-9.5,3.6q-6,0-9.5-3.6t-3.46-9.71V577Z" transform="translate(-159 -291)"/><path d="M650.73,613.22V585.68h2.13v5.13h.1a8.36,8.36,0,0,1,3.1-3.94,9.68,9.68,0,0,1,5.8-1.65,9.49,9.49,0,0,1,6.88,2.59,9.61,9.61,0,0,1,2.67,7.22v18.19h-2.19V595.54a8.82,8.82,0,0,0-2-6,7.17,7.17,0,0,0-5.67-2.29,8,8,0,0,0-6.4,2.67,9.81,9.81,0,0,0-2.29,6.63v16.67Z" transform="translate(-159 -291)"/><path d="M695.45,585.22a11.58,11.58,0,0,1,5.8,1.45,10.13,10.13,0,0,1,4,4.27,14.4,14.4,0,0,1,1.44,6.63v3.86q0,5.79-3.1,9a11.87,11.87,0,0,1-16.28,0q-3.07-3.23-3.07-9v-3.86q0-5.79,3.07-9.07A10.67,10.67,0,0,1,695.45,585.22Zm6.59,4.83a9.12,9.12,0,0,0-13.22,0q-2.46,2.82-2.46,7.86v3.25q0,5,2.46,7.82a8.4,8.4,0,0,0,6.63,2.8,8.31,8.31,0,0,0,6.61-2.8q2.45-2.79,2.44-7.82v-3.25Q704.5,592.9,702,590.05Z" transform="translate(-159 -291)"/><path d="M721.18,613.22V587.56h-4.63v-1.88h4.63v-3.46c0-2.5.57-4.31,1.73-5.41s3-1.65,5.43-1.65a11.07,11.07,0,0,1,2.75.31v1.83a12.61,12.61,0,0,0-2.65-.21,5.72,5.72,0,0,0-3.91,1.12c-.81.75-1.22,2-1.22,3.91v3.56h7.47v1.88h-7.47v25.66Z" transform="translate(-159 -291)"/><path d="M741.11,613.22V587.56h-4.63v-1.88h4.63v-3.46c0-2.5.57-4.31,1.73-5.41s3-1.65,5.43-1.65a11.07,11.07,0,0,1,2.75.31v1.83a12.57,12.57,0,0,0-2.64-.21,5.74,5.74,0,0,0-3.92,1.12c-.81.75-1.22,2-1.22,3.91v3.56h7.47v1.88h-7.47v25.66Z" transform="translate(-159 -291)"/><path d="M761.7,578.06a2.09,2.09,0,0,1,.13-.76,1.54,1.54,0,0,1,.38-.61,1.87,1.87,0,0,1,.61-.41,1.78,1.78,0,0,1,.71-.15,1.93,1.93,0,0,1,1.4.56,1.85,1.85,0,0,1,.58,1.37,1.94,1.94,0,0,1-.15.76,1.5,1.5,0,0,1-.43.58,2.74,2.74,0,0,1-.64.39,1.94,1.94,0,0,1-.76.15,1.77,1.77,0,0,1-1.3-.54A1.82,1.82,0,0,1,761.7,578.06Zm.81,35.16V585.68h2.14v27.54Z" transform="translate(-159 -291)"/><path d="M778.33,601.43v-4.16a14.21,14.21,0,0,1,1.37-6.46,9.58,9.58,0,0,1,3.81-4.16,11,11,0,0,1,5.64-1.43,11.81,11.81,0,0,1,4.34.77,9.12,9.12,0,0,1,3.21,2,9.36,9.36,0,0,1,1.93,2.66,7.55,7.55,0,0,1,.73,3h-2.08a7.65,7.65,0,0,0-1.17-3.08,7.15,7.15,0,0,0-2.74-2.36,9,9,0,0,0-4.22-1,8.46,8.46,0,0,0-4.55,1.22,8.15,8.15,0,0,0-3.05,3.59,13.21,13.21,0,0,0-1.09,5.61v3.61q0,5,2.36,7.72a9.43,9.43,0,0,0,12.1,1,7.2,7.2,0,0,0,2.41-4.17h2.08a7.31,7.31,0,0,1-.76,2.77,9.41,9.41,0,0,1-1.83,2.52,8.46,8.46,0,0,1-3.15,1.88,13.27,13.27,0,0,1-4.47.71,10.25,10.25,0,0,1-8-3.2C779.3,608.34,778.33,605.33,778.33,601.43Z" transform="translate(-159 -291)"/><path d="M811.93,578.06a2.33,2.33,0,0,1,.12-.76,1.66,1.66,0,0,1,.38-.61,2,2,0,0,1,.61-.41,1.86,1.86,0,0,1,.72-.15,1.91,1.91,0,0,1,1.39.56,1.82,1.82,0,0,1,.59,1.37,1.79,1.79,0,0,1-.16.76,1.4,1.4,0,0,1-.43.58,2.67,2.67,0,0,1-.63.39,1.94,1.94,0,0,1-.76.15,1.75,1.75,0,0,1-1.3-.54A1.79,1.79,0,0,1,811.93,578.06Zm.81,35.16V585.68h2.13v27.54Z" transform="translate(-159 -291)"/><path d="M845.88,608.75a8.15,8.15,0,0,1-3,3.33,9.77,9.77,0,0,1-5.79,1.6,9.43,9.43,0,0,1-6.5-2.21,7.6,7.6,0,0,1-2.49-6,7,7,0,0,1,2.41-5.59q2.41-2.08,6.94-2.09h8.43v-4a7,7,0,0,0-.91-3.73,5.37,5.37,0,0,0-2.52-2.19,9.64,9.64,0,0,0-3.83-.69,10.49,10.49,0,0,0-3.16.44,5.7,5.7,0,0,0-2.18,1.16,6.37,6.37,0,0,0-1.27,1.55,4.51,4.51,0,0,0-.56,1.68h-2.13A6.49,6.49,0,0,1,832,587.2a10.5,10.5,0,0,1,6.81-2,10.32,10.32,0,0,1,6.86,2.11,7.65,7.65,0,0,1,2.49,6.17v19.72H846v-4.47Zm-8.43,3a8.73,8.73,0,0,0,6-2.21,7.2,7.2,0,0,0,2.49-5.62v-4.17h-8.38a8,8,0,0,0-5.34,1.53,5.23,5.23,0,0,0-1.78,4.17,6.23,6.23,0,0,0,.92,3.38,5.79,5.79,0,0,0,2.49,2.18A8.43,8.43,0,0,0,837.45,611.75Z" transform="translate(-159 -291)"/><path d="M862.71,613.22V575.06h2.14v38.16Z" transform="translate(-159 -291)"/><path d="M920.1,577,905.27,593.1,921,613.22h-2.85l-14.48-18.6-4.52,4.73v13.87h-2.19V577h2.19v19.41h.1L917.31,577Z" transform="translate(-159 -291)"/><path d="M931.9,613.22h-2.28l13-36.18h2.29l13,36.18h-2.34L951.26,601H936.17Zm11.89-33.48h-.15l-6.86,19.46H950.6Z" transform="translate(-159 -291)"/><path d="M971.14,613.22h-2V577h2.13l13.62,30.85H985L998.68,577h2.14v36.18h-2v-31.3h-.11L986,610.43h-2l-12.71-28.51h-.1Z" transform="translate(-159 -291)"/><path d="M1019,613.22h-2.13V577H1019Z" transform="translate(-159 -291)"/><path d="M1044.79,613.22h-2.13V579h-12.25v-2h26.53v2h-12.15Z" transform="translate(-159 -291)"/><path d="M1065,604h2.24a7.19,7.19,0,0,0,.63,2.7,9.56,9.56,0,0,0,1.73,2.56,8.05,8.05,0,0,0,3.23,2,13.76,13.76,0,0,0,4.77.76,13.06,13.06,0,0,0,5.26-1,8.25,8.25,0,0,0,3.56-2.82,7.06,7.06,0,0,0,1.24-4.1,5.94,5.94,0,0,0-2-4.87,17.24,17.24,0,0,0-6.4-2.85l-4.73-1.27q-8.28-2.24-8.28-9.2a8.76,8.76,0,0,1,3.2-7.08,12.68,12.68,0,0,1,8.39-2.67,12.49,12.49,0,0,1,8.28,2.59,8.37,8.37,0,0,1,3.15,6.55H1087a7.15,7.15,0,0,0-2.46-5c-1.54-1.42-3.79-2.13-6.73-2.13a10.46,10.46,0,0,0-6.84,2.08,6.88,6.88,0,0,0-2.51,5.59,6.8,6.8,0,0,0,.81,3.41,6.24,6.24,0,0,0,2.31,2.31,15.19,15.19,0,0,0,3.89,1.5l4.57,1.27a27.46,27.46,0,0,1,4.19,1.42,13.65,13.65,0,0,1,3,1.86,6.47,6.47,0,0,1,2,2.66,9.61,9.61,0,0,1,.64,3.66,8.8,8.8,0,0,1-3.48,7.37,14.39,14.39,0,0,1-9.07,2.69,16.12,16.12,0,0,1-5.77-1,9.5,9.5,0,0,1-3.86-2.52,11.22,11.22,0,0,1-2-3.2A9.61,9.61,0,0,1,1065,604Z" transform="translate(-159 -291)"/><path d="M1104.07,577v23.68q0,5.24,2.82,8.26t7.95,3q5.13,0,7.93-3t2.79-8.26V577h2.24v23.68q0,6.1-3.46,9.71t-9.5,3.6q-6,0-9.5-3.6t-3.46-9.71V577Z" transform="translate(-159 -291)"/><path d="M1142.8,613.22V577h11.74a11.62,11.62,0,0,1,7.69,2.36,8,8,0,0,1,2.82,6.48,9.87,9.87,0,0,1-.4,2.9,7.65,7.65,0,0,1-1.07,2.24,9.25,9.25,0,0,1-1.5,1.62,7.22,7.22,0,0,1-1.65,1.09,6.66,6.66,0,0,1-1.57.54v.15a9.58,9.58,0,0,1,5.86,2.64,8.42,8.42,0,0,1,2.37,6.35,8.88,8.88,0,0,1-3.13,7.19q-3.12,2.63-8.81,2.62ZM1145,579v14.64h9a10.16,10.16,0,0,0,6.35-1.91,6.57,6.57,0,0,0,2.49-5.56,6.43,6.43,0,0,0-2.29-5.31,9.79,9.79,0,0,0-6.35-1.86Zm0,16.62v15.6h9.61q4.88,0,7.57-2a7.64,7.64,0,0,0,0-11.64,11.29,11.29,0,0,0-6.86-2Z" transform="translate(-159 -291)"/><path d="M1178.84,613.22h-2.29l13-36.18h2.28l13,36.18h-2.34L1198.2,601h-15.09Zm11.89-33.48h-.15l-6.87,19.46h13.83Z" transform="translate(-159 -291)"/><path d="M1239.21,577l-14.83,16.06,15.7,20.12h-2.85l-14.48-18.6-4.52,4.73v13.87H1216V577h2.19v19.41h.1L1236.42,577Z" transform="translate(-159 -291)"/><path d="M1253.56,613.22h-2.14V577h2.14Z" transform="translate(-159 -291)"/><path d="M1288.49,613.22h-2.19V577h20.38v2h-18.19v15h16.72v2h-16.72Z" transform="translate(-159 -291)"/><path d="M1331.84,608.75a8.11,8.11,0,0,1-2.94,3.33,9.8,9.8,0,0,1-5.8,1.6,9.45,9.45,0,0,1-6.5-2.21,7.6,7.6,0,0,1-2.49-6,7,7,0,0,1,2.41-5.59q2.42-2.08,6.94-2.09h8.43v-4a7,7,0,0,0-.91-3.73,5.37,5.37,0,0,0-2.52-2.19,9.6,9.6,0,0,0-3.83-.69,10.37,10.37,0,0,0-3.15.44,5.67,5.67,0,0,0-2.19,1.16,6.61,6.61,0,0,0-1.27,1.55,4.7,4.7,0,0,0-.56,1.68h-2.13a6.49,6.49,0,0,1,2.59-4.83,10.54,10.54,0,0,1,6.81-2,10.32,10.32,0,0,1,6.86,2.11,7.65,7.65,0,0,1,2.49,6.17v19.72H1332v-4.47Zm-8.43,3a8.74,8.74,0,0,0,6-2.21,7.22,7.22,0,0,0,2.48-5.62v-4.17h-8.38a8,8,0,0,0-5.34,1.53,5.23,5.23,0,0,0-1.77,4.17,6.22,6.22,0,0,0,.91,3.38,5.79,5.79,0,0,0,2.49,2.18A8.43,8.43,0,0,0,1323.41,611.75Z" transform="translate(-159 -291)"/><path d="M1348.27,613.22V585.68h2.13v5.13h.1a8.42,8.42,0,0,1,3.1-3.94,9.68,9.68,0,0,1,5.8-1.65,9.49,9.49,0,0,1,6.88,2.59A9.61,9.61,0,0,1,1369,595v18.19h-2.19V595.54a8.82,8.82,0,0,0-2-6,7.17,7.17,0,0,0-5.67-2.29,8,8,0,0,0-6.4,2.67,9.86,9.86,0,0,0-2.29,6.63v16.67Z" transform="translate(-159 -291)"/><path d="M1408.15,613.22h-2.34l-9.6-36.18h2.44l8.33,32.83h.1l9.3-32.83h2.34l9.25,32.83h.1L1436.4,577h2.44l-9.65,36.18h-2.29l-9.3-32.62h-.15Z" transform="translate(-159 -291)"/><path d="M1450.34,578.06a2.33,2.33,0,0,1,.12-.76,1.66,1.66,0,0,1,.38-.61,2,2,0,0,1,.61-.41,1.86,1.86,0,0,1,.72-.15,1.91,1.91,0,0,1,1.39.56,1.82,1.82,0,0,1,.59,1.37,1.79,1.79,0,0,1-.16.76,1.4,1.4,0,0,1-.43.58,2.67,2.67,0,0,1-.63.39,1.94,1.94,0,0,1-.76.15,1.75,1.75,0,0,1-1.3-.54A1.79,1.79,0,0,1,1450.34,578.06Zm.81,35.16V585.68h2.13v27.54Z" transform="translate(-159 -291)"/><path d="M1470.42,602v11.23h-2.09V575.06h2.09V599.4h.15l14.74-14.08H1488l-12.14,11.74,12.65,16.16h-2.7l-11.53-14.73Z" transform="translate(-159 -291)"/><path d="M1499.14,578.06a2.09,2.09,0,0,1,.13-.76,1.54,1.54,0,0,1,.38-.61,1.87,1.87,0,0,1,.61-.41,1.78,1.78,0,0,1,.71-.15,1.93,1.93,0,0,1,1.4.56,1.85,1.85,0,0,1,.58,1.37,1.94,1.94,0,0,1-.15.76,1.5,1.5,0,0,1-.43.58,2.74,2.74,0,0,1-.64.39,1.94,1.94,0,0,1-.76.15,1.77,1.77,0,0,1-1.3-.54A1.82,1.82,0,0,1,1499.14,578.06Zm.81,35.16V585.68h2.14v27.54Z" transform="translate(-159 -291)"/><path d="M1544.94,613.68a11.33,11.33,0,0,1-3.63-.56,7.91,7.91,0,0,1-2.69-1.47,9.48,9.48,0,0,1-1.68-1.86,9.85,9.85,0,0,1-1-1.85h-.1v5.28h-2.08V575.06h2.13V591h.1a9.64,9.64,0,0,1,.56-1.21,8.28,8.28,0,0,1,1.09-1.5,8.83,8.83,0,0,1,1.68-1.48,9.45,9.45,0,0,1,2.44-1.09,11.16,11.16,0,0,1,3.23-.46,9.8,9.8,0,0,1,7.62,3.2,12.25,12.25,0,0,1,2.89,8.54v4.93q0,5.64-3,8.71A10.16,10.16,0,0,1,1544.94,613.68Zm-.15-1.93a8,8,0,0,0,6.07-2.62c1.65-1.74,2.47-4.28,2.47-7.6v-4.21a10.8,10.8,0,0,0-2.39-7.42,7.83,7.83,0,0,0-6.15-2.7,8,8,0,0,0-6.5,2.93,10.75,10.75,0,0,0-2.39,7v4.53a10.8,10.8,0,0,0,2.41,7.16A8,8,0,0,0,1544.79,611.75Z" transform="translate(-159 -291)"/><path d="M1587.23,585.68l-9.9,27.59-1.12,3.05a22.75,22.75,0,0,1-1.2,2.57,7.37,7.37,0,0,1-1.45,1.83,5.48,5.48,0,0,1-2,1.16,8.11,8.11,0,0,1-2.62.39,15.54,15.54,0,0,1-2.54-.21v-1.93a12.15,12.15,0,0,0,2.34.2,4.91,4.91,0,0,0,3.35-1.06,7.56,7.56,0,0,0,2-3.15l.87-2.54-10.27-27.9H1567l9,25.31h.11l8.84-25.31Z" transform="translate(-159 -291)"/><path d="M1635.83,611.24v2h-20.37V577h2.18v34.2Z" transform="translate(-159 -291)"/><path d="M1648.6,578.06a2.09,2.09,0,0,1,.13-.76,1.54,1.54,0,0,1,.38-.61,1.87,1.87,0,0,1,.61-.41,1.78,1.78,0,0,1,.71-.15,1.93,1.93,0,0,1,1.4.56,1.85,1.85,0,0,1,.58,1.37,1.94,1.94,0,0,1-.15.76,1.5,1.5,0,0,1-.43.58,2.74,2.74,0,0,1-.64.39,1.94,1.94,0,0,1-.76.15,1.77,1.77,0,0,1-1.3-.54A1.82,1.82,0,0,1,1648.6,578.06Zm.81,35.16V585.68h2.14v27.54Z" transform="translate(-159 -291)"/><path d="M1666.5,613.22V585.68h2.13v5.13h.1a8.36,8.36,0,0,1,3.1-3.94,9.67,9.67,0,0,1,5.79-1.65,9.5,9.5,0,0,1,6.89,2.59,9.61,9.61,0,0,1,2.67,7.22v18.19H1685V595.54a8.82,8.82,0,0,0-2-6,7.17,7.17,0,0,0-5.67-2.29,8,8,0,0,0-6.4,2.67,9.81,9.81,0,0,0-2.29,6.63v16.67Z" transform="translate(-159 -291)"/><path d="M1703.45,602v11.23h-2.08V575.06h2.08V599.4h.15l14.74-14.08H1721l-12.14,11.74,12.65,16.16h-2.69l-11.54-14.73Z" transform="translate(-159 -291)"/><line class="cls-2" x1="443" y1="268" x2="1577" y2="268"/></svg>