<svg id="图层_1" data-name="图层 1" xmlns="http://www.w3.org/2000/svg" viewBox="0 0 400 400"><path d="M822.41,677.59,765.41,540l23.12-55.82A179.36,179.36,0,0,0,780,539c0,99.25,80.75,180,180,180s180-80.75,180-180a179.06,179.06,0,0,0-8.54-54.82L1154.59,540l-57,137.59L960,734.59Zm297.77-220.65A181.23,181.23,0,0,0,1047,381.43l50.64,21ZM822.41,402.41l50.64-21a181.23,181.23,0,0,0-73.23,75.51Zm187.12-36.48a180.47,180.47,0,0,0-99.06,0L960,345.41Z" transform="translate(-760 -340)"/><path d="M960,350.82l8.09,3.35q-4-.17-8.09-.17t-8.09.17l8.09-3.35M835.26,402.49q-6.74,6.17-12.85,13l3.82-9.22,9-3.74m249.48,0,9,3.74,3.82,9.22q-6.1-6.79-12.85-13M775.25,529.31Q775,534.13,775,539q0,6,.39,12l-4.57-11,4.43-10.69m369.5,0,4.43,10.69-4.57,11q.39-6,.39-12,0-4.87-.25-9.69M820.86,660.8a187.66,187.66,0,0,0,18.63,18.46l-13.26-5.49-5.37-13m278.28,0-5.37,13-13.26,5.49a187.66,187.66,0,0,0,18.63-18.46M946.29,723.5q6.8.5,13.71.5t13.71-.5L960,729.18l-13.71-5.68M960,340,818.58,398.58,760,540l58.58,141.42L960,740l141.42-58.58L1160,540l-58.58-141.42L960,340Zm0,374a175,175,0,1,1,175-175A175,175,0,0,1,960,714Z" transform="translate(-760 -340)"/><path d="M842.5,473.82c-4.65,4.35-19.2,15.75-21.6,15.75-.3,0-.6-.15-.6-.45a3.56,3.56,0,0,1,1.2-1.95c15.9-15.9,28.65-38.1,35.25-59.85l-9.6.15c-5.4.15-16.8.75-19.8,1.2a13.66,13.66,0,0,1-2.25-5.85c2.25.3,10.95.75,16.95.9V413.07a124.28,124.28,0,0,0-1.35-17.4c1.8,0,23.4.15,23.4,4.65,0,1.35-2,3-5.25,3.6-.45,3.45-.45,14.85-.45,19.5,2.7-3.3,5.55-6.3,6.3-6.3,1,0,13.95,7.5,13.95,12.3,0,1.95-2.4,3-5.7,3.3a153.08,153.08,0,0,1-14.1,22.95v1.65c8.4,1.95,20.4,5.85,20.4,15.9a8.69,8.69,0,0,1-8.25,9c-2.7,0-5-1.65-5.85-4.8-1.5-5.25-1.2-11.55-6.3-17.1v36.6c0,4.2.15,14.84.3,20.54,0,1.35.15,9.3.15,10.8,0,5.55-11.25,5.55-11.7,5.55-4.35,0-6.15-1.65-6.15-4.35v-.6c.3-2.85,1-21.75,1-31.34Zm113.69,16.5c0,5.55-10.8,5.55-11.4,5.55-4.5,0-6.29-1.65-6.29-4.05v-.3c.15-1.95.15-5.1.15-7.65h-12.6l.15,7.35c0,6.45,0,18.14.15,26.39,0,1.35.3,8.7.3,10.35,0,4.35-7.95,5.55-12.15,5.55s-6-1.35-6-3.9v-.9c.45-2.7,1-27.59,1-37.49v-7.35H897.7c0,3.15.3,6.45.3,8.25v.15c0,3.6-6.9,5.1-11.25,5.1-3.75,0-6-1.2-6-4.05v-.45c.6-9.9.9-26.85.9-31.8,0,0,.15-25.35.15-26.4-.15-5.55-.6-16.35-1.35-21.9,5.7,1.65,14.25,5.7,18.6,8.1h10.5v-4.35a160.65,160.65,0,0,0-1.35-21.3,116.13,116.13,0,0,1,19.95,2.25c2.55.6,3.6,1.8,3.6,3,0,1.5-2,3.15-5.4,3.6-.15,1.8-.3,8.25-.3,16.8h11.24c2.4-2.85,6.75-7.5,7.65-7.5,2.25,0,15.3,7.8,15.3,12,0,1.5-1.2,2.85-4.8,3.75-.15,2.4-.3,6.6-.3,11.1,0,9,.3,19.2.3,19.2,0,14.25.75,30.15.75,30.75Zm-46.64-65.7h-12v24.75h12Zm0,28.65h-12l.15,10.65V480h11.85Zm29.39-28.65H926.05v24.75h12.89ZM938.65,480c0-4.35.29-12,.29-17.4v-9.3H926.05V480Z" transform="translate(-760 -340)"/><path d="M1081.54,525.86c0,3.15-3.29,4.8-9.89,5.25h-1.35c-3.9,0-6.15-1.2-6.15-3.75v-.15c0-1.2.3-3.9.3-5.7h-22.8c0,1.5.15,5.1.15,5.7,0,4.5-8,5.1-10.65,5.1-3.6,0-6.3-1-6.3-3.6v-.6s.9-10.5.9-24.9l.15-16.8c0-2.25,0-5.1-.15-8-10.65,10.65-22.65,17.55-24.3,17.55-.3,0-.45-.15-.45-.3,0-.45.3-.9,1-1.65,10.8-9.75,19.5-22.05,26.1-37.05-4.05,0-9.3.15-13.5.3,1.5,2.55,2.25,4.5,2.25,6.9,0,6-4.65,9-7.8,9s-5-2.85-5.25-6.45c-.3-4.5-.45-11.55-5.1-17.85,0,21.3.15,42.15.15,42.15,0,5.55.15,19.8.3,27.9,0,2.1,0,5.85.15,8.4v.15c0,1.65-1.8,5.25-11.4,5.25-4.5,0-6.3-1.65-6.3-4.5v-.6c.15-1.35.15-3.45,1.05-34.65l.9-25.5c-6.3,16.8-20.7,29.25-22.35,29.25a.32.32,0,0,1-.3-.3,3.54,3.54,0,0,1,.75-1.95c9.6-15.9,15.75-40.35,19.2-62.54a113.57,113.57,0,0,0-15,.9,11.38,11.38,0,0,1-2.4-5.7c4,.45,12.75,1.05,19.5,1.2v-10.2a167.28,167.28,0,0,0-1.35-23.25H983a111.44,111.44,0,0,1,17.7,1.5c2.55.45,3.9,1.8,3.9,3.15,0,1.5-1.8,3.15-5.55,3.75-.15,2.1-.3,12.3-.3,25.05h1c4.5-11.7,5.4-11.85,6.15-11.85s9.6,9.15,9.6,13.05a2.44,2.44,0,0,1-2.7,2.4h-14.1v14.09a38.7,38.7,0,0,1,11.4,6.3c5.1.45,13.05.75,19.5.9a131.09,131.09,0,0,0,5.55-16.34,167.89,167.89,0,0,0-17.25.75,17.52,17.52,0,0,1-2.25-5.7c3.3.45,12.75.9,20.55,1.2,1.2-4.8,2.1-9.9,3-15.15-5.7,0-20.7,0-25.2.75a17.43,17.43,0,0,1-2.25-5.7c4.35.6,19.5,1.2,28,1.35a98.14,98.14,0,0,0,1.35-15.9,36.59,36.59,0,0,0-.15-4.2,165.66,165.66,0,0,1,21.9,3.75c1.5.45,2.7,1.65,2.7,2.85,0,1.5-1.5,2.85-5.85,3.45-.6,3.45-1,6.75-1.8,10.05h15.15c1.8-2.25,6.3-9.15,9.45-12a.78.78,0,0,1,.6-.3,2.64,2.64,0,0,1,.75.3c4.5,2.25,14.84,10.05,14.84,13.35a2.29,2.29,0,0,1-2.54,2.25H1057.1a150.84,150.84,0,0,1-4.35,15.29h16.65c2.85-4.34,8.1-11.54,9.45-11.54,1.19,0,14.69,9.15,14.69,12.9a2.38,2.38,0,0,1-2.54,2.25h-29.1a74.66,74.66,0,0,0,10.8,16.49h6c1.5-2.7,8.25-12.45,9.75-12.45.59,0,15.14,9.75,15.14,13.8a2.25,2.25,0,0,1-2.4,2.25h-25.34a87,87,0,0,0,30.29,20.1c.75.3,1.2.6,1.2,1.05s-.6.75-1.35,1c-5.7,2.1-14.24,5.85-17,9.3a2.76,2.76,0,0,1-1.79.75c-1.35,0-4.21-2.4-6.6-5.1v19.2c0,3.75.45,13.65.45,15.15s.44,6.45.44,7.2ZM1042.1,457a109.09,109.09,0,0,1-8.55,12.6c3.15,1.35,6.45,3,9.15,4.5h20.7a63.29,63.29,0,0,1,6-6.45,99,99,0,0,1-4.65-10.65Zm22.5,20.85h-22.95c-.15,3-.15,10.5-.15,16.95h23.1Zm0,20.85h-23.1v6.75c0,2.4.15,8.4.15,12.3h22.8c0-3.75.15-10.2.15-12.45Zm-1.2-45.3a155.41,155.41,0,0,1-4.35-16.49h-7.5a128,128,0,0,1-7.35,16.49Z" transform="translate(-760 -340)"/><path d="M903.4,663.26c0,2.55.3,6.75.3,8.85,0,1.95-1.5,5.1-11.55,5.1-4.35,0-6.15-1.35-6.15-4.05v-.75c.9-12.45,1.2-23.4,1.2-32.55,0,0,.15-32,.15-52.94a148.92,148.92,0,0,1-11,12c1.05,1.34,4.05,5.24,4.05,9.44,0,6-4.05,9-7.65,9s-5.25-3.3-5.55-7.2c-.15-1.65-.3-3.75-.6-6.15l-5.85,2.25v33.9c0,8.25.75,30.75.75,31.2v.15c0,3.15-5.4,5.1-10.35,5.1-4.35,0-6-1.5-6-4.05v-.3c.15-2.1.45-7.65.45-11.25s.15-13.35.15-20V630a11.9,11.9,0,0,1-2.55.3c-5.85,23.1-20.85,38.85-21.9,38.85-.15,0-.3-.15-.3-.45a4.55,4.55,0,0,1,.45-1.65c6-15.6,7.8-36.75,7.8-41.7a35.28,35.28,0,0,0-.15-4.2,69.88,69.88,0,0,1,16.35,4.2l.3.15v-14.1c-4.65,1.5-9,2.7-12.75,3.75,0,3.15-1.2,4.8-2.55,4.8-3.15,0-6.6-10.8-8.1-18.45,2.4.15,5.7.6,8,.6,2.85,0,5.85-.15,9-.15,10.35-14.09,21-36.14,21.45-43.79,6.75,1.8,19.5,7.5,19.5,10.8,0,1.2-1.2,2-3.3,2a15,15,0,0,1-2.4-.3A241.44,241.44,0,0,1,844,601.76c7.2-.15,15-.6,22-1.2a30,30,0,0,0-4-10.5,2.44,2.44,0,0,1-.6-1.35c0-.29.15-.29.45-.29,1.8,0,9,5,12.75,8.69,13.2-22.64,18.9-48.74,18.9-57.14v-.75c4.2.6,23,4.5,23,9,0,1.5-1.65,2.55-4.65,2.55h-1.35a150.41,150.41,0,0,1-12.75,22.35h18c1.95-6.45,4.95-19.2,4.95-29.25,0-.75-.15-1.5-.15-2.1.9.15,23.24,4.2,23.24,9,0,1.35-1.49,2.4-4.34,2.4h-1.21a113.72,113.72,0,0,1-18.29,20h15.45c.75-1,5.09-8.85,9-12.3a2.18,2.18,0,0,1,.9-.3c3.45,0,15,12.15,15,14.4,0,1.35-1,2.1-2.55,2.1H930.85v23.54H934c.75-1,4.65-8.25,8.4-11.85a1.1,1.1,0,0,1,.89-.29,1.12,1.12,0,0,1,.9.29c5.85,3.46,13.35,11.4,13.35,13.95,0,1.2-1,1.8-2.4,1.8H930.85v23.85H934c6.75-11.4,8.69-12.15,9.29-12.15,2.7,0,14.25,11.1,14.25,14.1,0,1.2-1,1.8-2.4,1.8H930.85v27.3h6.75c.75-1.05,5.55-9.3,9.44-12.75a1.15,1.15,0,0,1,.75-.3c2.55,0,15.15,11.85,15.15,15.15,0,1.2-1.05,1.8-2.55,1.8ZM841,570.72c5.55,3.3,6.9,6.9,6.9,10,0,3.9-3,9.15-7.65,9.15-2.7,0-5-2.41-5.85-5.4-1.8-5.55-4.5-12.9-11.1-18-.75-.6-1-.9-1-1.2s.3-.3.9-.3a47,47,0,0,1,14.25,3.9c5-12.15,7.65-21.45,7.65-29.1v-1.35c6.3,1,21.75,4.95,21.75,9,0,1.2-1.2,2.1-3.9,2.1-.45,0-1-.15-1.65-.15A130.76,130.76,0,0,1,841,570.72Zm41,74.09c0,5-2.55,10.65-8.4,10.65-3.3,0-5.55-3.15-5.55-7.5v-4.8c0-6-.45-13.8-3.9-21a4.89,4.89,0,0,1-.45-1.5c0-.3.15-.45.3-.45C866.05,620.21,882,632.36,882,644.81ZM915.1,577h-12v23.54h12Zm0,27.44h-12v23.85h12Zm0,27.6h-12v6.45c0,5.7,0,14.85.15,20.85H915.1Z" transform="translate(-760 -340)"/><path d="M1055.75,616.31c12.6,10.5,30.45,16.65,49.94,18.45.75,0,1,.3,1,.6s-.45.75-.9,1c-6.9,3.15-15.45,8.4-18.3,12.6a2.51,2.51,0,0,1-2.25,1c-.29,0-20.84-5.1-32.84-33.75H1024.1c-22.2,32.85-61.5,40.35-61.8,40.35q-.9,0-.9-.45c0-.3.6-.9,1.65-1.35a96.64,96.64,0,0,0,39.75-38.55c-9,0-30.45.45-34.95.9-1.5-1.5-2.4-4.5-2.55-6.6,5.7.9,24.75,1.2,36.6,1.35V561.72c-9.15.15-24.45.45-28.5.9-1.5-1.5-2.4-4.65-2.55-6.75,5.55.9,20.4,1.35,31,1.5v-2.55a97.54,97.54,0,0,0-1.35-15.9c8.7.15,24.6,1.35,24.6,5.1,0,1.35-1.8,2.85-5.4,3.6-.15,1.5-.15,5.1-.15,9.75h28.05v-2.55a118.33,118.33,0,0,0-1.5-16.05,146.19,146.19,0,0,1,21.45,2.4c2.25.45,3.44,1.65,3.44,2.85,0,1.35-1.64,2.85-5.54,3.45-.15,1.5-.3,5.1-.3,9.9h5.4c1.65-2.4,6.75-9.45,10.5-13,.29-.15.44-.3.75-.3,1.94,0,16.34,11.55,16.34,15.3a2.59,2.59,0,0,1-2.85,2.4H1065.2v50.39h8.55c2.1-3.15,7.79-11.25,11.54-14.55a2.27,2.27,0,0,1,.91-.3c2.25,0,17.54,13.5,17.54,16.65a2.45,2.45,0,0,1-2.7,2.4Zm-42.15,54.45c-6,0-30.15.15-35.1.75-1.5-1.2-2.25-4.5-2.4-6.45,5.4.9,31.35,1.5,39.75,1.5h8.25v-16.2H1021c-6,0-17.55.3-22.5.9-1.5-1.2-2.4-4.2-2.55-6.15,5,.75,19.65,1.2,28.2,1.2v-4.65c0-5.4-.15-13.35-1.2-18a138.36,138.36,0,0,1,21.75,2.55c2.25.6,3.6,1.8,3.6,3.15s-1.8,3-5.7,3.6c-.15,2.55-.3,7.65-.3,13.35h4.65c1-1.5,8.1-11.55,9.9-11.55a1.1,1.1,0,0,1,.9.3c4.5,2.7,14,10.8,14,13.2,0,1.2-1.2,2.1-2.7,2.1h-26.7v16.2h22.35c1.35-1.8,7.5-9.75,11.54-13.5a2.23,2.23,0,0,1,.9-.3c1.35,0,16.8,12,16.8,15.75a2.3,2.3,0,0,1-2.55,2.25Zm34.05-109h-28.2v13.35h28.2Zm0,17.7h-28.2v13.64h28.2Zm0,18h-28.2c0,6.74.15,12.29.15,14.69h28.05Z" transform="translate(-760 -340)"/></svg>